<svg width="225" height="55" viewBox="0 0 225 55" xmlns="http://www.w3.org/2000/svg"><title>nav-Logo</title><g fill-rule="nonzero" fill="none"><path fill="#F00" d="M25.915 10.443l2.083-5.218L30.08 0H0l4.467 10.443M39.55 0H49.98L30.06 46.576H19.902"/><path fill="#605A5A" d="M30.08 46.576H19.915L0 0h10.426"/><path fill="#BC1313" d="M14.84 10.443L10.425 0H0l4.467 10.443M24.99 34.516l-5.082 12.04.014.02H30.06l.014-.02"/><path d="M38.417 35.797c-.003-6.08 4.906-11.015 10.976-11.034 2.894.002 5.668 1.16 7.71 3.214 2.04 2.056 3.18 4.84 3.165 7.74.084 2.927-1.03 5.762-3.083 7.847-2.054 2.084-4.87 3.238-7.792 3.193-6.04-.022-10.935-4.91-10.976-10.96zm16.95.04c0-3.75-2.894-6.54-5.974-6.54-3.447.15-6.133 3.046-6.027 6.5-.07 1.657.532 3.272 1.665 4.48 1.135 1.21 2.707 1.91 4.363 1.946 3.596 0 5.973-3.12 5.973-6.393v.007zM67.152 44.154l-7.554-18.666h5.64l4.686 13.227L74.9 25.488h5.598L68.444 53.853H63.12M101.625 46.086h-4.527v-2.562c-1.868 2.002-4.463 3.167-7.198 3.233-5.304 0-10.045-4.233-10.045-11.108 0-6.32 4.6-10.887 10.312-10.887 2.657.013 5.166 1.228 6.824 3.307h.108v-2.582h4.527v20.598zM90.91 29.318c-4.017 0-6.12 3.494-6.12 6.573-.05 1.662.57 3.273 1.723 4.47 1.153 1.195 2.738 1.874 4.398 1.883 3.416 0 6.028-2.683 6.028-6.5.013-4.292-3.067-6.452-6-6.452l-.027.028zM125.638 25.488v16.835c0 9.92-7.366 12.187-11.236 12.187-4.226 0-8.565-2.226-10.346-6.834h5.638c1.244 1.518 3.123 2.37 5.083 2.3 2.78 0 6.027-1.93 6.308-6.425l-.074-.073c-1.538 2.183-4.083 3.43-6.75 3.307-5.977-.205-10.675-5.192-10.532-11.182-.03-5.86 4.637-10.66 10.486-10.785 4.226 0 6.027 2.415 6.563 3.233h.073v-2.562h4.788zm-10.975 3.83c-1.64.024-3.202.707-4.335 1.895-1.133 1.187-1.742 2.78-1.692 4.423 0 4.2 3.154 6.613 6.154 6.613s5.9-2.53 5.9-6.648c.013-2.937-2.364-6.278-6.034-6.278l.007-.006z" fill="#F00"/><path d="M165.77 18.11c7.866.04 14.217 6.446 14.203 14.324-.014 7.88-6.387 14.262-14.252 14.276-7.865.013-14.26-6.348-14.3-14.226-.01-3.815 1.5-7.477 4.193-10.174 2.693-2.698 6.348-4.21 10.157-4.2zm0 23.85c3.883.107 7.442-2.155 8.998-5.72 1.556-3.564.8-7.717-1.915-10.5-2.714-2.783-6.842-3.64-10.436-2.165-3.594 1.474-5.936 4.985-5.92 8.875-.035 5.177 4.105 9.414 9.273 9.49v.02zM182.518 25.91h4.56v1.785c1.45-1.58 3.495-2.483 5.64-2.49 2.366.042 4.606 1.082 6.166 2.865 1.888 2.267 1.888 5.72 1.888 7.318v11.14h-4.9V36.355c0-1.71 0-6.614-4.153-6.614-1.342.038-2.585.713-3.35 1.818-.89 1.26-.89 3.42-.89 5.165v9.806h-4.935l-.027-20.62z" fill="#605A5A"/><path d="M149.217 35.495c0-5.198-3.898-10.732-10.648-10.732-6.53 0-10.83 5.24-10.83 11.074-.064 5.246 3.668 9.77 8.824 10.696 5.156.926 10.224-2.018 11.983-6.96h-5.197c-.93 1.728-2.776 2.76-4.734 2.65-.752.003-1.498-.138-2.196-.416l-.08-.034-.088-.033c-1.325-.525-2.397-1.54-2.993-2.838v-.067l-.122-.268c-.352-.885-.53-1.83-.522-2.783 0-2.55 1.07-4.736 3.114-5.77l.16-.08.135-.06c.828-.37 1.725-.56 2.63-.556 2.804-.157 5.244 1.9 5.566 4.695h-4.76l-1.76 3.977h11.27c.173-.82.256-1.657.247-2.495z" fill="#F00"/><path d="M224.665 35.495c0-5.198-3.897-10.732-10.647-10.732-6.53 0-10.828 5.24-10.828 11.074-.075 5.254 3.66 9.79 8.823 10.716 5.163.927 10.238-2.027 11.99-6.98h-5.197c-.938 1.727-2.79 2.755-4.748 2.636-.752.002-1.498-.14-2.196-.417l-.08-.033-.088-.034c-1.322-.52-2.394-1.532-2.993-2.824v-.067l-.12-.268c-.352-.885-.53-1.83-.522-2.783 0-2.55 1.07-4.736 3.114-5.77l.16-.08.135-.06c.827-.37 1.725-.56 2.63-.556 2.804-.157 5.244 1.9 5.566 4.695h-4.634l-1.688 3.977h11.07c.175-.82.26-1.656.253-2.495z" fill="#605A5A"/></g></svg>